<?xml version="1.0" standalone="no"?>
<!DOCTYPE svg PUBLIC "-//W3C//DTD SVG 20010904//EN"
 "http://www.w3.org/TR/2001/REC-SVG-20010904/DTD/svg10.dtd">
<svg version="1.0" xmlns="http://www.w3.org/2000/svg"
 width="500.000000pt" height="500.000000pt" viewBox="0 0 500.000000 500.000000"
 preserveAspectRatio="xMidYMid meet">

<g transform="translate(0.000000,500.000000) scale(0.100000,-0.100000)"
fill="#000000" stroke="none">
<path d="M470 4985 c-59 -19 -113 -65 -139 -118 l-21 -43 0 -2326 0 -2325 23
-44 c48 -91 149 -140 246 -121 54 12 72 21 761 420 157 91 314 181 350 202 36
20 225 129 420 242 195 113 517 299 715 413 198 115 518 299 710 410 193 111
496 287 675 390 179 103 348 202 376 221 141 95 141 295 0 388 -28 18 -168
101 -311 183 -432 250 -1028 594 -1430 826 -571 330 -1040 600 -1435 829 -195
113 -447 258 -560 323 -256 148 -287 159 -380 130z m536 -576 c203 -117 495
-285 649 -374 261 -150 434 -250 1160 -670 282 -163 879 -507 1273 -734 116
-68 212 -127 212 -131 0 -5 -96 -63 -212 -131 -117 -67 -339 -195 -493 -284
-154 -89 -361 -209 -460 -265 -99 -57 -259 -149 -355 -205 -164 -96 -459 -266
-1125 -650 -154 -89 -446 -257 -649 -374 -203 -117 -375 -215 -383 -218 -11
-4 -13 347 -13 2127 0 1780 2 2131 13 2127 8 -3 180 -101 383 -218z"/>
</g>
</svg>
